<?xml version="1.0" standalone="no"?><!DOCTYPE svg PUBLIC "-//W3C//DTD SVG 1.1//EN" "http://www.w3.org/Graphics/SVG/1.1/DTD/svg11.dtd"><svg t="1718456952390" class="icon" viewBox="0 0 1024 1024" version="1.1" xmlns="http://www.w3.org/2000/svg" p-id="2160" xmlns:xlink="http://www.w3.org/1999/xlink" width="200" height="200"><path d="M916.945455 390.981818c-18.618182 0-34.909091 16.290909-34.909091 34.909091v470.109091c0 25.6-20.945455 44.218182-44.218182 44.218182H151.272727c-25.6 0-44.218182-20.945455-44.218182-44.218182V123.345455c0-25.6 20.945455-44.218182 44.218182-44.218182h514.327273c18.618182 0 34.909091-16.290909 34.909091-34.909091S684.218182 9.309091 665.6 9.309091H151.272727C88.436364 9.309091 37.236364 60.509091 37.236364 123.345455v774.981818c0 62.836364 51.2 114.036364 114.036363 114.036363H837.818182c62.836364 0 114.036364-51.2 114.036363-114.036363V425.890909c0-18.618182-16.290909-34.909091-34.90909-34.909091z" fill="#231815" p-id="2161"></path><path d="M262.981818 695.854545c0 18.618182 16.290909 34.909091 34.909091 34.909091h411.927273c18.618182 0 34.909091-16.290909 34.909091-34.909091s-16.290909-34.909091-34.909091-34.90909H297.890909c-18.618182 0-34.909091 13.963636-34.909091 34.90909zM297.890909 358.4h81.454546c18.618182 0 34.909091-16.290909 34.90909-34.909091s-16.290909-34.909091-34.90909-34.909091h-81.454546c-18.618182 0-34.909091 16.290909-34.909091 34.909091s16.290909 34.909091 34.909091 34.909091zM612.072727 474.763636H297.890909c-18.618182 0-34.909091 16.290909-34.909091 34.909091s16.290909 34.909091 34.909091 34.909091h314.181818c18.618182 0 34.909091-16.290909 34.909091-34.909091s-16.290909-34.909091-34.909091-34.909091zM979.781818 30.254545c-18.618182-18.618182-46.545455-18.618182-65.163636 0L630.690909 314.181818c-18.618182 18.618182-18.618182 46.545455 0 65.163637s46.545455 18.618182 65.163636 0L979.781818 93.090909c16.290909-16.290909 16.290909-46.545455 0-62.836364z" fill="#231815" p-id="2162"></path></svg>